<svg width="171" height="44" viewBox="0 0 171 44" fill="none" xmlns="http://www.w3.org/2000/svg">
<path d="M34.194 18.0923C36.8013 18.0923 38.6943 18.8632 39.8733 20.4048C41.0522 21.9465 41.6416 24.0663 41.6416 26.7642C41.6416 28.0338 41.4829 29.224 41.1655 30.3349C40.8481 31.4232 40.3607 32.3754 39.7032 33.1916C39.0684 33.9851 38.2636 34.6199 37.2887 35.096C36.3138 35.5494 35.1803 35.7761 33.888 35.7761C32.5957 35.7761 31.4735 35.5834 30.5213 35.198C29.5917 34.7899 28.8209 34.2118 28.2088 33.4636C27.5966 32.7155 27.1432 31.8086 26.8485 30.743C26.5764 29.6775 26.4404 28.4759 26.4404 27.1383C26.4404 25.846 26.5991 24.6557 26.9165 23.5675C27.2339 22.4566 27.71 21.5044 28.3448 20.7109C29.0023 19.8947 29.8185 19.2599 30.7933 18.8065C31.7682 18.3304 32.9018 18.0923 34.194 18.0923ZM33.854 20.9489C33.1965 20.9489 32.6524 21.0963 32.2216 21.391C31.8135 21.6858 31.4848 22.1052 31.2354 22.6493C31.0087 23.1708 30.85 23.7942 30.7593 24.5197C30.6686 25.2225 30.6233 25.982 30.6233 26.7982C30.6233 27.637 30.6686 28.4305 30.7593 29.1787C30.8727 29.9269 31.0654 30.5843 31.3374 31.1511C31.6095 31.6952 31.9722 32.126 32.4257 32.4434C32.9018 32.7608 33.5026 32.9195 34.2281 32.9195C34.8855 32.9195 35.4183 32.7721 35.8264 32.4774C36.2572 32.1827 36.5859 31.7746 36.8126 31.2531C37.062 30.709 37.232 30.0856 37.3227 29.3827C37.4134 28.6799 37.4587 27.9204 37.4587 27.1043C37.4587 26.2654 37.4021 25.4719 37.2887 24.7238C37.198 23.9756 37.0167 23.3181 36.7446 22.7513C36.4725 22.1845 36.0985 21.7425 35.6224 21.425C35.1689 21.1076 34.5795 20.9489 33.854 20.9489ZM51.9323 18.0923C54.5395 18.0923 56.4326 18.8632 57.6115 20.4048C58.7904 21.9465 59.3799 24.0663 59.3799 26.7642C59.3799 28.0338 59.2212 29.224 58.9038 30.3349C58.5864 31.4232 58.0989 32.3754 57.4415 33.1916C56.8067 33.9851 56.0018 34.6199 55.0269 35.096C54.0521 35.5494 52.9185 35.7761 51.6262 35.7761C50.3339 35.7761 49.2117 35.5834 48.2595 35.198C47.33 34.7899 46.5591 34.2118 45.947 33.4636C45.3349 32.7155 44.8814 31.8086 44.5867 30.743C44.3147 29.6775 44.1786 28.4759 44.1786 27.1383C44.1786 25.846 44.3373 24.6557 44.6547 23.5675C44.9721 22.4566 45.4482 21.5044 46.083 20.7109C46.7405 19.8947 47.5567 19.2599 48.5316 18.8065C49.5064 18.3304 50.64 18.0923 51.9323 18.0923ZM51.5922 20.9489C50.9347 20.9489 50.3906 21.0963 49.9599 21.391C49.5518 21.6858 49.223 22.1052 48.9737 22.6493C48.7469 23.1708 48.5882 23.7942 48.4975 24.5197C48.4069 25.2225 48.3615 25.982 48.3615 26.7982C48.3615 27.637 48.4069 28.4305 48.4975 29.1787C48.6109 29.9269 48.8036 30.5843 49.0757 31.1511C49.3477 31.6952 49.7105 32.126 50.1639 32.4434C50.64 32.7608 51.2408 32.9195 51.9663 32.9195C52.6238 32.9195 53.1565 32.7721 53.5646 32.4774C53.9954 32.1827 54.3241 31.7746 54.5508 31.2531C54.8002 30.709 54.9703 30.0856 55.0609 29.3827C55.1516 28.6799 55.197 27.9204 55.197 27.1043C55.197 26.2654 55.1403 25.4719 55.0269 24.7238C54.9363 23.9756 54.7549 23.3181 54.4828 22.7513C54.2108 22.1845 53.8367 21.7425 53.3606 21.425C52.9072 21.1076 52.3177 20.9489 51.5922 20.9489ZM82.3552 35.436V24.3497C82.3552 23.3975 82.2079 22.6493 81.9131 22.1052C81.6184 21.5384 81.1083 21.255 80.3828 21.255C79.952 21.255 79.5099 21.3797 79.0565 21.6291C78.6258 21.8558 78.229 22.1959 77.8663 22.6493C77.5035 23.1027 77.2088 23.6469 76.9821 24.2817C76.7554 24.9165 76.642 25.6193 76.642 26.3901V35.436H72.7992V24.3497C72.7992 23.3975 72.6518 22.6493 72.3571 22.1052C72.0624 21.5384 71.5522 21.255 70.8268 21.255C70.3733 21.255 69.9199 21.391 69.4665 21.6631C69.0357 21.9125 68.639 22.2866 68.2762 22.7853C67.9361 23.2841 67.6528 23.8962 67.426 24.6217C67.222 25.3245 67.12 26.1181 67.12 27.0022V35.436H63.2431V26.8662C63.2431 25.5059 63.1525 24.3723 62.9711 23.4655C62.7897 22.536 62.597 21.7878 62.393 21.221C62.1436 20.5635 61.8715 20.0308 61.5768 19.6227L64.6374 18.3984C64.8642 18.6478 65.0909 18.9539 65.3176 19.3166C65.499 19.634 65.6803 20.0308 65.8617 20.5069C66.0431 20.9603 66.1904 21.4817 66.3038 22.0712C66.8706 20.7109 67.6641 19.736 68.6843 19.1466C69.7272 18.5344 70.8268 18.2284 71.983 18.2284C73.1393 18.2284 74.0348 18.5231 74.6696 19.1126C75.3271 19.702 75.8145 20.4615 76.1319 21.391C76.744 20.2575 77.5262 19.4526 78.4784 18.9765C79.4533 18.4778 80.4735 18.2284 81.539 18.2284C82.4232 18.2284 83.1601 18.3757 83.7495 18.6705C84.3616 18.9425 84.8377 19.3393 85.1778 19.8607C85.5406 20.3595 85.8013 20.9716 85.96 21.6971C86.1187 22.3999 86.198 23.1934 86.198 24.0776V35.436H82.3552ZM89.5849 27.3763C89.5849 25.8573 89.789 24.5197 90.1971 23.3635C90.6278 22.2072 91.206 21.2437 91.9314 20.4728C92.6796 19.6793 93.5525 19.0899 94.55 18.7045C95.5475 18.2964 96.6244 18.0923 97.7807 18.0923C98.8009 18.0923 99.6624 18.217 100.365 18.4664C101.091 18.7158 101.68 19.0559 102.134 19.4866C102.587 19.9174 102.916 20.4275 103.12 21.017C103.347 21.6064 103.46 22.2412 103.46 22.9214C103.46 23.7375 103.233 24.5197 102.78 25.2679C102.326 25.9934 101.669 26.6395 100.807 27.2063C99.9685 27.7504 98.9483 28.1925 97.7467 28.5326C96.5451 28.85 95.1961 29.02 93.6998 29.0427C93.7678 29.5641 93.8699 30.0629 94.0059 30.539C94.1646 30.9924 94.38 31.4005 94.652 31.7633C94.9467 32.1033 95.3208 32.3754 95.7743 32.5794C96.2277 32.7835 96.7945 32.8855 97.4746 32.8855C97.9734 32.8855 98.5062 32.8288 99.073 32.7155C99.6397 32.6021 100.161 32.4661 100.637 32.3074C101.204 32.126 101.76 31.922 102.304 31.6952L103.324 34.1098C102.735 34.4045 102.1 34.6652 101.42 34.8919C100.83 35.096 100.15 35.2773 99.379 35.436C98.6082 35.5947 97.792 35.6741 96.9305 35.6741C95.6156 35.6741 94.4933 35.4814 93.5638 35.096C92.6343 34.6879 91.8748 34.1211 91.2853 33.3956C90.6958 32.6701 90.2651 31.7973 89.993 30.777C89.721 29.7568 89.5849 28.6233 89.5849 27.3763ZM97.4746 20.7449C96.7265 20.7449 96.103 20.9263 95.6042 21.289C95.1281 21.6291 94.7427 22.0825 94.448 22.6493C94.1532 23.1934 93.9379 23.8169 93.8018 24.5197C93.6885 25.1999 93.6205 25.8913 93.5978 26.5942C94.686 26.5488 95.6042 26.4128 96.3524 26.1861C97.1232 25.9367 97.7467 25.6419 98.2228 25.3019C98.6989 24.9391 99.039 24.5537 99.243 24.1456C99.4697 23.7375 99.5831 23.3295 99.5831 22.9214C99.5831 22.2639 99.3904 21.7425 99.0049 21.357C98.6195 20.9489 98.1094 20.7449 97.4746 20.7449ZM114.433 22.0372C114.025 22.0372 113.616 22.1392 113.208 22.3432C112.8 22.5473 112.438 22.8307 112.12 23.1934C111.803 23.5335 111.542 23.9529 111.338 24.4517C111.134 24.9505 111.032 25.5059 111.032 26.118V35.436H107.155V26.8662C107.155 25.5059 107.064 24.3723 106.883 23.4655C106.702 22.536 106.509 21.7878 106.305 21.221C106.056 20.5635 105.783 20.0308 105.489 19.6227L108.549 18.3984C108.753 18.6478 108.969 18.9539 109.196 19.3166C109.377 19.634 109.558 20.0081 109.74 20.4388C109.921 20.8696 110.068 21.3797 110.182 21.9692C110.635 20.6542 111.293 19.7134 112.154 19.1466C113.016 18.5571 113.991 18.2624 115.079 18.2624C115.6 18.2624 116.088 18.3304 116.541 18.4664C116.995 18.5798 117.21 18.6365 117.187 18.6365L116.099 22.4113C116.122 22.4113 115.986 22.3546 115.691 22.2412C115.419 22.1052 114.999 22.0372 114.433 22.0372ZM132.214 27.2403C132.214 28.6006 132.293 29.7455 132.452 30.675C132.633 31.5819 132.826 32.3187 133.03 32.8855C133.279 33.5656 133.552 34.0984 133.846 34.4838L130.82 35.7081C130.525 35.4134 130.253 35.062 130.003 34.6539C129.799 34.2911 129.607 33.8604 129.425 33.3616C129.244 32.8401 129.131 32.228 129.085 31.5252C128.7 32.8855 128.076 33.917 127.215 34.6199C126.376 35.3 125.231 35.6401 123.78 35.6401C122.715 35.6401 121.785 35.4474 120.992 35.062C120.221 34.6539 119.575 34.0871 119.053 33.3616C118.532 32.6134 118.146 31.7179 117.897 30.675C117.647 29.6321 117.523 28.4759 117.523 27.2063C117.523 25.914 117.715 24.7238 118.101 23.6355C118.509 22.5246 119.064 21.5724 119.767 20.7789C120.493 19.9854 121.354 19.3619 122.352 18.9085C123.349 18.4551 124.449 18.2284 125.651 18.2284C126.331 18.2284 127.033 18.285 127.759 18.3984C128.507 18.4891 129.199 18.5911 129.833 18.7045C130.468 18.8178 131.001 18.9312 131.432 19.0445C131.885 19.1352 132.146 19.1919 132.214 19.2146V27.2403ZM124.426 32.9195C124.993 32.9195 125.514 32.7268 125.991 32.3414C126.467 31.956 126.875 31.4572 127.215 30.8451C127.578 30.2103 127.85 29.4961 128.031 28.7026C128.235 27.8864 128.337 27.0589 128.337 26.2201V21.323C128.11 21.255 127.77 21.1757 127.317 21.085C126.863 20.9943 126.455 20.9489 126.093 20.9489C125.231 20.9489 124.517 21.0963 123.95 21.391C123.406 21.6858 122.964 22.0939 122.624 22.6153C122.284 23.1367 122.046 23.7602 121.91 24.4857C121.774 25.2112 121.706 26.0047 121.706 26.8662C121.706 27.6597 121.728 28.4192 121.774 29.1447C121.819 29.8702 121.932 30.5163 122.114 31.0831C122.318 31.6499 122.601 32.1033 122.964 32.4434C123.327 32.7608 123.814 32.9195 124.426 32.9195ZM146.823 35.436V24.4517C146.823 23.4995 146.653 22.74 146.313 22.1732C145.973 21.5838 145.395 21.289 144.579 21.289C144.058 21.289 143.547 21.4251 143.049 21.6971C142.573 21.9465 142.142 22.3206 141.756 22.8193C141.371 23.3181 141.054 23.9303 140.804 24.6557C140.577 25.3586 140.464 26.1521 140.464 27.0362V35.436H136.587V26.8662C136.587 25.5059 136.497 24.3723 136.315 23.4655C136.134 22.536 135.941 21.7878 135.737 21.221C135.488 20.5635 135.216 20.0308 134.921 19.6227L137.982 18.3984C138.208 18.6478 138.435 18.9539 138.662 19.3166C138.843 19.634 139.024 20.0308 139.206 20.5069C139.387 20.9603 139.535 21.4817 139.648 22.0712C140.237 20.7109 141.088 19.736 142.199 19.1466C143.309 18.5344 144.477 18.2284 145.701 18.2284C147.447 18.2284 148.705 18.7611 149.476 19.8267C150.27 20.8696 150.666 22.2866 150.666 24.0776V35.436H146.823ZM157.666 38.4287C158.006 38.5647 158.369 38.7007 158.754 38.8368C159.14 38.9955 159.548 39.1428 159.978 39.2789C160.409 39.4149 160.84 39.5282 161.271 39.6189C161.724 39.7096 162.166 39.755 162.597 39.755C163.867 39.755 164.785 39.3695 165.352 38.5987C165.918 37.8505 166.202 36.8757 166.202 35.6741C166.202 34.4952 165.952 33.3049 165.454 32.1033C165.068 33.2596 164.456 34.1438 163.617 34.7559C162.801 35.3453 161.713 35.6401 160.353 35.6401C159.287 35.6401 158.357 35.4474 157.564 35.062C156.793 34.6539 156.147 34.0871 155.626 33.3616C155.104 32.6134 154.719 31.7179 154.469 30.675C154.22 29.6321 154.095 28.4759 154.095 27.2063C154.095 25.914 154.288 24.7238 154.673 23.6355C155.081 22.5246 155.637 21.5724 156.34 20.7789C157.065 19.9854 157.927 19.3619 158.924 18.9085C159.922 18.4551 161.021 18.2284 162.223 18.2284C162.767 18.2284 163.345 18.2624 163.957 18.3304C164.592 18.3984 165.204 18.4891 165.794 18.6024C166.406 18.6931 166.973 18.7952 167.494 18.9085C168.038 19.0219 168.503 19.1239 168.888 19.2146L168.718 28.5666C168.696 29.2467 168.73 29.8702 168.82 30.437C168.934 31.0038 169.058 31.5705 169.194 32.1373C169.33 32.6814 169.455 33.2369 169.568 33.8037C169.682 34.3705 169.739 34.9939 169.739 35.6741C169.739 38.0773 169.126 39.8683 167.902 41.0472C166.678 42.2261 165.023 42.8156 162.937 42.8156C162.257 42.8156 161.577 42.7476 160.897 42.6116C160.216 42.4982 159.582 42.3622 158.992 42.2035C158.425 42.0448 157.938 41.8861 157.53 41.7274C157.122 41.5687 156.85 41.4553 156.714 41.3873L157.666 38.4287ZM160.999 32.9195C161.543 32.9195 162.042 32.7381 162.495 32.3754C162.971 32.0126 163.391 31.5365 163.753 30.9471C164.116 30.3349 164.399 29.6435 164.603 28.8726C164.807 28.1018 164.909 27.3083 164.909 26.4921V21.323C164.683 21.255 164.343 21.1757 163.889 21.085C163.436 20.9943 163.028 20.9489 162.665 20.9489C161.804 20.9489 161.089 21.0963 160.523 21.391C159.978 21.6858 159.536 22.0939 159.196 22.6153C158.856 23.1367 158.618 23.7602 158.482 24.4857C158.346 25.2112 158.278 26.0047 158.278 26.8662C158.278 27.6597 158.301 28.4192 158.346 29.1447C158.391 29.8702 158.505 30.5163 158.686 31.0831C158.89 31.6499 159.174 32.1033 159.536 32.4434C159.899 32.7608 160.387 32.9195 160.999 32.9195Z" fill="white"/>
<path d="M9.95213 39.2839L15.8153 33.375C16.9812 32.2 17.2609 30.4091 16.5086 28.9346L12.1296 20.3512C11.8385 19.7806 12.0049 19.083 12.5224 18.7053C13.1041 18.2807 13.9199 18.4081 14.3445 18.9898L21.8729 29.304C23.1206 31.0134 22.7464 33.4107 21.0369 34.6584L11.7637 41.427C11.1693 41.8609 10.2314 41.6614 9.75644 41.0992C9.27523 40.5296 9.42691 39.8133 9.95213 39.2839Z" fill="#ADD800"/>
<path d="M12.1332 19.1028L16.307 12.3694C17.024 11.2126 16.9172 9.72621 16.0422 8.68389L11.1708 2.88128C11.0272 2.71019 10.9485 2.49395 10.9485 2.27057C10.9485 1.46984 11.8784 1.02842 12.4988 1.53468L20.4079 7.98894C21.7233 9.12793 21.8663 11.1176 20.7272 12.433L13.8549 20.3695C13.4673 20.8171 12.7902 20.8658 12.3426 20.4782C11.9444 20.1334 11.8557 19.5505 12.1332 19.1028Z" fill="#ADD800"/>
<path d="M13.8549 20.3695L13.5939 16.7455L15.5928 13.5203L15.9143 17.9906L13.8549 20.3695Z" fill="#ADD800"/>
<path d="M12.3422 20.4769C11.9443 20.1324 11.8555 19.5492 12.1331 19.1017L13.5943 16.7442L13.8547 20.3682C13.6608 20.5922 13.3948 20.7162 13.121 20.7359C12.8472 20.7555 12.5658 20.6706 12.3422 20.4769Z" fill="#ADD800"/>
<path d="M2.02099 5.81943C1.93838 3.30537 3.97185 1.23148 6.48705 1.2646L8.08402 1.28562L6.95927 35.8013L3.00601 35.7977L2.02099 5.81943Z" fill="#ADD800"/>
</svg>
