<svg width="146" height="19" viewBox="0 0 146 19" fill="none" xmlns="http://www.w3.org/2000/svg">
<path d="M9.53501 0.325012C12.135 0.325012 14.335 1.29168 16.135 3.22501L13.885 5.30001C12.7017 4.15001 11.2517 3.57501 9.53501 3.57501C7.98501 3.57501 6.68501 4.10835 5.63501 5.17501C4.60168 6.24168 4.08501 7.60001 4.08501 9.25001C4.08501 10.9167 4.60168 12.2833 5.63501 13.35C6.68501 14.4 7.98501 14.925 9.53501 14.925C11.285 14.925 12.735 14.35 13.885 13.2L16.135 15.275C14.335 17.2083 12.135 18.175 9.53501 18.175C7.06834 18.175 4.96834 17.3083 3.23501 15.575C1.50168 13.825 0.63501 11.7167 0.63501 9.25001C0.63501 6.78335 1.50168 4.68334 3.23501 2.95001C4.96834 1.20001 7.06834 0.325012 9.53501 0.325012Z" fill="#272A34"/>
<path d="M26.0211 2.95001C27.7545 1.20001 29.8545 0.325012 32.3211 0.325012C34.7878 0.325012 36.8878 1.20001 38.6211 2.95001C40.3711 4.68334 41.2461 6.78335 41.2461 9.25001C41.2461 11.7167 40.3711 13.825 38.6211 15.575C36.8878 17.3083 34.7878 18.175 32.3211 18.175C29.8545 18.175 27.7545 17.3083 26.0211 15.575C24.2878 13.825 23.4211 11.7167 23.4211 9.25001C23.4211 6.78335 24.2878 4.68334 26.0211 2.95001ZM36.2211 5.17501C35.1711 4.10835 33.8711 3.57501 32.3211 3.57501C30.7711 3.57501 29.4711 4.10835 28.4211 5.17501C27.3878 6.24168 26.8711 7.60001 26.8711 9.25001C26.8711 10.9167 27.3878 12.2833 28.4211 13.35C29.4711 14.4 30.7711 14.925 32.3211 14.925C33.8878 14.925 35.1878 14.4 36.2211 13.35C37.2711 12.2833 37.7961 10.9167 37.7961 9.25001C37.7961 7.60001 37.2711 6.24168 36.2211 5.17501Z" fill="#272A34"/>
<path d="M63.3487 18H61.2987L53.0237 6.97501V18H49.5737V0.500011H51.5987L59.8987 11.525V0.500011H63.3487V18Z" fill="#272A34"/>
<path d="M79.4319 3.75001V18H75.9819V3.75001H71.1819V0.500011H84.2319V3.75001H79.4319Z" fill="#272A34"/>
<path d="M93.794 14.8L92.544 18H88.719L95.919 0.500011H97.944L105.044 18H101.219L99.969 14.8H93.794ZM96.894 6.75001L94.994 11.525H98.769L96.894 6.75001Z" fill="#272A34"/>
<path d="M119.169 0.325012C121.769 0.325012 123.969 1.29168 125.769 3.22501L123.519 5.30001C122.335 4.15001 120.885 3.57501 119.169 3.57501C117.619 3.57501 116.319 4.10835 115.269 5.17501C114.235 6.24168 113.719 7.60001 113.719 9.25001C113.719 10.9167 114.235 12.2833 115.269 13.35C116.319 14.4 117.619 14.925 119.169 14.925C120.919 14.925 122.369 14.35 123.519 13.2L125.769 15.275C123.969 17.2083 121.769 18.175 119.169 18.175C116.702 18.175 114.602 17.3083 112.869 15.575C111.135 13.825 110.269 11.7167 110.269 9.25001C110.269 6.78335 111.135 4.68334 112.869 2.95001C114.602 1.20001 116.702 0.325012 119.169 0.325012Z" fill="#272A34"/>
<path d="M140.93 3.75001V18H137.48V3.75001H132.68V0.500011H145.73V3.75001H140.93Z" fill="#272A34"/>
</svg>
