<svg width="24" height="24" viewBox="0 0 24 24" fill="none" xmlns="http://www.w3.org/2000/svg">
<path fill-rule="evenodd" clip-rule="evenodd" d="M22.4006 4.49361C23.1998 3.6944 23.1998 2.39862 22.4006 1.59941C21.6014 0.800197 20.3056 0.800197 19.5064 1.59941L12 9.1058L4.49362 1.59941C3.69441 0.800197 2.39862 0.800197 1.59941 1.59941C0.800197 2.39862 0.800197 3.6944 1.59941 4.49361L9.10581 12L1.59941 19.5064C0.800197 20.3056 0.800197 21.6014 1.59941 22.4006C2.39862 23.1998 3.69441 23.1998 4.49362 22.4006L12 14.8942L19.5064 22.4006C20.3056 23.1998 21.6014 23.1998 22.4006 22.4006C23.1998 21.6014 23.1998 20.3056 22.4006 19.5064L14.8942 12L22.4006 4.49361Z" fill="white"/>
<path d="M22.4006 1.59941L22.0471 1.95296L22.4006 1.59941ZM22.4006 4.49361L22.7542 4.84717V4.84717L22.4006 4.49361ZM19.5064 1.59941L19.86 1.95296V1.95296L19.5064 1.59941ZM12 9.1058L11.6465 9.45935C11.8417 9.65461 12.1583 9.65461 12.3536 9.45935L12 9.1058ZM4.49362 1.59941L4.14007 1.95296L4.49362 1.59941ZM1.59941 1.59941L1.95296 1.95296V1.95296L1.59941 1.59941ZM1.59941 4.49361L1.95296 4.14006H1.95296L1.59941 4.49361ZM9.10581 12L9.45936 12.3536C9.55313 12.2598 9.60581 12.1326 9.60581 12C9.60581 11.8674 9.55313 11.7402 9.45936 11.6464L9.10581 12ZM1.59941 19.5064L1.24586 19.1528H1.24586L1.59941 19.5064ZM1.59941 22.4006L1.95296 22.047H1.95296L1.59941 22.4006ZM4.49362 22.4006L4.84717 22.7541H4.84717L4.49362 22.4006ZM12 14.8942L12.3536 14.5407C12.1583 14.3454 11.8417 14.3454 11.6465 14.5407L12 14.8942ZM19.5064 22.4006L19.86 22.047L19.5064 22.4006ZM22.4006 22.4006L22.0471 22.047H22.0471L22.4006 22.4006ZM22.4006 19.5064L22.0471 19.8599L22.4006 19.5064ZM14.8942 12L14.5407 11.6464C14.4469 11.7402 14.3942 11.8674 14.3942 12C14.3942 12.1326 14.4469 12.2598 14.5407 12.3536L14.8942 12ZM22.0471 1.95296C22.651 2.55691 22.651 3.53611 22.0471 4.14006L22.7542 4.84717C23.7487 3.85269 23.7487 2.24033 22.7542 1.24586L22.0471 1.95296ZM19.86 1.95296C20.4639 1.34901 21.4431 1.34901 22.0471 1.95296L22.7542 1.24586C21.7597 0.251381 20.1473 0.251381 19.1529 1.24586L19.86 1.95296ZM12.3536 9.45935L19.86 1.95296L19.1529 1.24586L11.6465 8.75224L12.3536 9.45935ZM4.14007 1.95296L11.6465 9.45935L12.3536 8.75224L4.84717 1.24586L4.14007 1.95296ZM1.95296 1.95296C2.55691 1.34901 3.53611 1.34901 4.14007 1.95296L4.84717 1.24586C3.8527 0.251381 2.24033 0.251381 1.24586 1.24586L1.95296 1.95296ZM1.95296 4.14006C1.34901 3.53611 1.34901 2.55691 1.95296 1.95296L1.24586 1.24586C0.251381 2.24033 0.251381 3.85269 1.24586 4.84717L1.95296 4.14006ZM9.45936 11.6464L1.95296 4.14006L1.24586 4.84717L8.75226 12.3536L9.45936 11.6464ZM1.95296 19.8599L9.45936 12.3536L8.75226 11.6464L1.24586 19.1528L1.95296 19.8599ZM1.95296 22.047C1.34901 21.4431 1.34901 20.4639 1.95296 19.8599L1.24586 19.1528C0.251381 20.1473 0.251381 21.7597 1.24586 22.7541L1.95296 22.047ZM4.14007 22.047C3.53611 22.651 2.55692 22.651 1.95296 22.047L1.24586 22.7541C2.24033 23.7486 3.8527 23.7486 4.84717 22.7541L4.14007 22.047ZM11.6465 14.5407L4.14007 22.047L4.84717 22.7541L12.3536 15.2478L11.6465 14.5407ZM19.86 22.047L12.3536 14.5407L11.6465 15.2478L19.1529 22.7541L19.86 22.047ZM22.0471 22.047C21.4431 22.651 20.4639 22.651 19.86 22.047L19.1529 22.7541C20.1473 23.7486 21.7597 23.7486 22.7542 22.7541L22.0471 22.047ZM22.0471 19.8599C22.651 20.4639 22.651 21.4431 22.0471 22.047L22.7542 22.7541C23.7487 21.7597 23.7487 20.1473 22.7542 19.1528L22.0471 19.8599ZM14.5407 12.3536L22.0471 19.8599L22.7542 19.1528L15.2478 11.6464L14.5407 12.3536ZM22.0471 4.14006L14.5407 11.6464L15.2478 12.3536L22.7542 4.84717L22.0471 4.14006Z" fill="#FF3252"/>
</svg>
