<svg width="200" height="200" viewBox="0 0 200 200" fill="none" xmlns="http://www.w3.org/2000/svg">
<circle cx="100" cy="100" r="100" fill="#515151" fill-opacity="0.5"/>
<g clip-path="url(#clip0)">
<path d="M151.859 69.8983C149.641 67.5747 146.578 66.2017 143.093 66.2017H125.56V65.9904C125.56 63.35 124.504 60.8151 122.708 59.1252C120.913 57.3297 118.483 56.2735 115.843 56.2735H84.1572C81.4111 56.2735 78.9818 57.3297 77.1863 59.1252C75.3908 60.9207 74.3346 63.35 74.3346 65.9904V66.2017H56.9075C53.4221 66.2017 50.3591 67.5747 48.1411 69.8983C45.9231 72.1163 44.4445 75.2849 44.4445 78.6647V131.263C44.4445 134.748 45.8175 137.811 48.1411 140.029C50.3591 142.247 53.5277 143.726 56.9075 143.726H143.093C146.578 143.726 149.641 142.353 151.859 140.029C154.077 137.811 155.556 134.643 155.556 131.263V78.6647C155.556 75.1793 154.183 72.1163 151.859 69.8983ZM150.063 131.263H149.958C149.958 133.164 149.218 134.854 147.951 136.121C146.684 137.389 144.994 138.128 143.093 138.128H56.9075C55.0064 138.128 53.3164 137.389 52.049 136.121C50.7816 134.854 50.0423 133.164 50.0423 131.263V78.6647C50.0423 76.7636 50.7816 75.0737 52.049 73.8062C53.3164 72.5388 55.0064 71.7995 56.9075 71.7995H77.2919C78.8762 71.7995 80.1437 70.5321 80.1437 68.9478V65.8848C80.1437 64.723 80.5661 63.6668 81.3055 62.9275C82.0448 62.1882 83.101 61.7657 84.2628 61.7657H115.843C117.005 61.7657 118.061 62.1882 118.8 62.9275C119.54 63.6668 119.962 64.723 119.962 65.8848V68.9478C119.962 70.5321 121.229 71.7995 122.814 71.7995H143.198C145.099 71.7995 146.789 72.5388 148.057 73.8062C149.324 75.0737 150.063 76.7636 150.063 78.6647V131.263Z" fill="white"/>
<path d="M100 78.9816C92.8181 78.9816 86.2698 81.9389 81.6225 86.5861C76.8697 91.339 74.018 97.7817 74.018 104.964C74.018 112.146 76.9753 118.694 81.6225 123.342C86.3754 128.094 92.8181 130.946 100 130.946C107.182 130.946 113.731 127.989 118.378 123.342C123.131 118.589 125.982 112.146 125.982 104.964C125.982 97.7817 123.025 91.2334 118.378 86.5861C113.731 81.9389 107.182 78.9816 100 78.9816ZM114.364 119.434C110.668 123.025 105.598 125.348 100 125.348C94.4024 125.348 89.3327 123.025 85.6361 119.434C81.9394 115.737 79.7214 110.667 79.7214 105.069C79.7214 99.4716 82.045 94.4019 85.6361 90.7053C89.3327 87.0086 94.4024 84.7906 100 84.7906C105.598 84.7906 110.668 87.1142 114.364 90.7053C118.061 94.4019 120.279 99.4716 120.279 105.069C120.385 110.667 118.061 115.737 114.364 119.434Z" fill="white"/>
<path d="M137.602 89.2268C140.46 89.2268 142.778 86.9097 142.778 84.0515C142.778 81.1932 140.46 78.8762 137.602 78.8762C134.744 78.8762 132.427 81.1932 132.427 84.0515C132.427 86.9097 134.744 89.2268 137.602 89.2268Z" fill="white"/>
</g>
<defs>
<clipPath id="clip0">
<rect width="111.111" height="111.111" fill="white" transform="translate(44.4445 44.4445)"/>
</clipPath>
</defs>
</svg>
