<svg width="27" height="24" viewBox="0 0 27 24" fill="none" xmlns="http://www.w3.org/2000/svg">
<path d="M24.1816 2.57043C23.5645 1.95297 22.8317 1.46316 22.0252 1.12899C21.2187 0.794806 20.3542 0.622803 19.4812 0.622803C18.6082 0.622803 17.7438 0.794806 16.9373 1.12899C16.1307 1.46316 15.398 1.95297 14.7808 2.57043L13.5 3.85126L12.2191 2.57043C10.9725 1.3238 9.28173 0.623449 7.51873 0.623449C5.75573 0.623449 4.06494 1.3238 2.81831 2.57043C1.57169 3.81705 0.871338 5.50784 0.871338 7.27084C0.871338 9.03384 1.57169 10.7246 2.81831 11.9713L4.09915 13.2521L13.5 22.6529L22.9008 13.2521L24.1816 11.9713C24.7991 11.3541 25.2889 10.6213 25.6231 9.81481C25.9573 9.0083 26.1293 8.14385 26.1293 7.27084C26.1293 6.39784 25.9573 5.53338 25.6231 4.72687C25.2889 3.92036 24.7991 3.18759 24.1816 2.57043Z" fill="white" stroke="#3EDE82" stroke-opacity="0.56" stroke-linecap="round" stroke-linejoin="round"/>
</svg>
